# xmcd
# 
# Track frame offsets:
#     150
#     23809
#     42629
#     57996
#     79219
#     101231
#     123022
#     134829
#     151951
#     178221
# 
# Disc length: 2706
# 
# Revision: 0
# Processed by: cddbd v1.5.2PL0 Copyright (c) Steve Scherf et al.
# Submitted via: fre:ac v1.0.17
# 
DISCID=8d0a900a
DTITLE=Paul McCartney and Wings - Band on the Run (25th Anniversary Edition - Disc 1)
DYEAR=1973
DGENRE=Rock
TTITLE0=Band On The Run
TTITLE1=Jet
TTITLE2=Bluebird
TTITLE3=Mrs Vandebilt
TTITLE4=Let Me Roll It
TTITLE5=Mamunia
TTITLE6=No Words
TTITLE7=Helen Wheels
TTITLE8=Picasso's Last Words (Drink To Me)
TTITLE9=Nineteen Hundred And Eighty Five
EXTD=orrigional release:\n YEAR: 1973
EXTT0=
EXTT1=
EXTT2=
EXTT3=
EXTT4=
EXTT5=
EXTT6=
EXTT7=
EXTT8=
EXTT9=
PLAYORDER=
